<?xml version="1.0" standalone="no"?>
<!DOCTYPE svg PUBLIC "-//W3C//DTD SVG 20010904//EN"
 "http://www.w3.org/TR/2001/REC-SVG-20010904/DTD/svg10.dtd">
<svg version="1.0" xmlns="http://www.w3.org/2000/svg"
 width="1254.000000pt" height="1254.000000pt" viewBox="0 0 1254.000000 1254.000000"
 preserveAspectRatio="xMidYMid meet">

<g transform="translate(0.000000,1254.000000) scale(0.100000,-0.100000)"
fill="#000000" stroke="none">
<path d="M5755 12423 c-447 -35 -783 -126 -1155 -313 -329 -165 -572 -340
-830 -599 -360 -362 -611 -767 -766 -1236 l-43 -130 -68 -11 c-598 -101 -1205
-449 -1653 -949 -224 -250 -392 -500 -545 -810 -179 -364 -278 -686 -346
-1125 -20 -126 -23 -185 -23 -450 0 -268 2 -323 22 -450 73 -465 239 -889 482
-1230 65 -91 235 -295 278 -333 l20 -18 -29 -87 c-259 -764 -196 -1560 180
-2277 221 -422 545 -798 931 -1082 761 -559 1703 -716 2565 -428 88 29 180 63
205 74 l45 20 35 -33 c58 -55 229 -189 331 -259 528 -365 1129 -574 1777 -617
747 -51 1507 195 2073 668 203 170 443 435 579 637 179 268 322 576 413 889
l34 119 80 23 c728 210 1398 790 1781 1541 132 259 211 468 280 743 192 758
135 1527 -162 2189 -115 256 -290 529 -465 727 l-59 65 24 92 c35 136 72 350
85 500 14 160 6 479 -15 625 -38 251 -120 536 -224 772 -438 996 -1397 1687
-2472 1781 -278 24 -651 -5 -910 -71 l-115 -30 -49 58 c-28 31 -118 125 -200
207 -358 356 -770 592 -1260 720 -271 71 -604 107 -831 88z m-2273 -4062 c32
-11 77 -33 100 -50 47 -32 280 -267 633 -636 126 -132 286 -298 355 -370 693
-717 731 -759 768 -832 74 -147 67 -345 -15 -477 -15 -23 -186 -221 -382 -440
-539 -605 -1022 -1147 -1160 -1302 -141 -158 -170 -184 -261 -228 -62 -30 -70
-31 -190 -31 -121 0 -128 1 -191 32 -181 89 -280 308 -224 499 28 96 45 120
227 319 352 388 1076 1181 1165 1279 51 56 93 104 93 108 0 11 -230 246 -1207
1239 -194 197 -216 223 -250 295 -37 77 -38 82 -38 194 0 104 3 121 27 173 32
67 114 158 178 195 106 63 250 75 372 33z m6169 -109 c258 -69 466 -251 567
-495 64 -153 62 -109 62 -1394 l1 -1168 494 -505 c279 -284 494 -512 492 -520
-2 -13 -239 -15 -2052 -18 -2255 -3 -2118 -6 -2281 57 -262 102 -473 371 -514
657 -8 56 -10 456 -8 1404 4 1445 0 1337 60 1488 44 107 90 174 183 267 139
138 313 224 490 242 44 5 609 8 1255 7 1150 -1 1177 -2 1251 -22z"/>
<path d="M7582 7128 c-17 -17 -17 -1699 0 -1716 16 -16 1489 -17 1519 -2 19
10 19 31 19 858 0 646 -3 851 -12 860 -17 17 -1509 17 -1526 0z"/>
</g>
</svg>
